<svg width="95" height="40" viewBox="0 0 95 40" fill="none" xmlns="http://www.w3.org/2000/svg">
<path d="M19.0948 4.0641C24.1284 4.01445 27.8921 6.68845 31.5245 9.57523C35.4513 12.6961 39.1262 16.1645 43.2269 19.0264C49.1366 23.1509 54.4504 22.6083 60.0693 18.3171C62.8539 16.1893 65.2767 13.5933 67.9194 11.2704C72.9281 6.87286 78.0752 2.67036 84.5809 0.609894C86.6631 -0.049739 88.7241 -0.301534 90.9128 0.482223C94.2897 1.69155 95.2227 6.6388 94.6622 9.31634C94.0911 12.0577 92.8283 13.0968 89.7776 13.2741C84.329 13.5933 79.7424 15.9871 75.4467 19.0654C70.0974 22.8991 66.0251 27.9492 62.3076 33.2936C58.9625 38.1026 54.5497 40.7127 48.5974 39.8261C44.9899 39.2871 41.7654 37.5954 38.7183 35.6059C33.2662 32.0418 27.8495 28.4209 22.3406 24.9489C18.9104 22.7892 15.09 21.438 11.0497 21.1649C8.44241 20.9911 5.84582 21.7075 3.6004 23.2005C2.70294 23.7963 1.72744 24.3602 0.929309 23.4949C0.354653 22.8707 -0.166795 21.672 0.0389461 20.9379C1.27339 16.5014 3.06831 12.2386 6.85324 9.38727C9.27602 7.56086 12.0748 6.1884 14.831 4.87623C16.0939 4.27689 17.6582 4.3159 19.0842 4.0641H19.0948Z" fill="#EF2752"/>
</svg>
