<svg width="56" height="41" viewBox="0 0 56 41" fill="none" xmlns="http://www.w3.org/2000/svg">
<path fill-rule="evenodd" clip-rule="evenodd" d="M34.4118 31.978C24.9836 33.8126 15.2317 34.9975 6.72903 39.7707C6.22188 40.0531 5.58121 39.8758 5.2946 39.3693C5.01214 38.8622 5.18952 38.2215 5.69596 37.9349C14.3976 33.0511 24.3625 31.7873 34.0099 29.9113C34.5799 29.7975 35.1346 30.173 35.2442 30.7437C35.358 31.3136 34.9818 31.8642 34.4118 31.978Z" fill="#EF4444"/>
<path fill-rule="evenodd" clip-rule="evenodd" d="M32.9316 18.0889C29.52 15.8744 25.9542 14.3868 21.8901 14.0392C21.3096 13.99 20.8814 13.4798 20.9285 12.9013C20.9797 12.3222 21.4917 11.8925 22.068 11.9424C26.4873 12.3198 30.3663 13.917 34.0752 16.3231C34.5643 16.6389 34.7048 17.291 34.3862 17.7789C34.0717 18.2656 33.4165 18.4054 32.9316 18.0889Z" fill="#EF4444"/>
<path fill-rule="evenodd" clip-rule="evenodd" d="M50.3991 13.1422C48.2592 8.73377 44.979 5.55764 40.4505 3.63047C39.9166 3.40295 39.6665 2.78443 39.896 2.24976C40.1214 1.71579 40.7409 1.46634 41.2748 1.69385C46.2868 3.82807 49.9231 7.34172 52.2927 12.2227C52.5478 12.7448 52.3261 13.3759 51.8054 13.6291C51.2806 13.8834 50.6501 13.665 50.3991 13.1422Z" fill="#EF4444"/>
</svg>
