<svg width="45" height="49" viewBox="0 0 45 49" fill="none" xmlns="http://www.w3.org/2000/svg">
<path fill-rule="evenodd" clip-rule="evenodd" d="M14.7913 45.1978C10.5702 44.0133 6.15076 43.4157 1.86365 42.8683C0.940274 42.7535 0.0829804 43.3939 0.0170248 44.2962C-0.114886 45.1992 0.545056 46.0249 1.40248 46.1397C5.55768 46.6667 9.8444 47.2306 13.8677 48.371C14.7251 48.6183 15.6489 48.1091 15.9127 47.2332C16.1765 46.358 15.6488 45.4458 14.7913 45.1978Z" fill="#EF2752"/>
<path fill-rule="evenodd" clip-rule="evenodd" d="M27.5862 28.4039C20.7928 21.4713 13.1419 15.4311 6.48044 8.31248C5.88684 7.64765 4.83155 7.61203 4.17199 8.23267C3.51243 8.85397 3.44674 9.89871 4.10629 10.5635C10.7678 17.7026 18.4187 23.7626 25.2121 30.7156C25.8716 31.3646 26.9267 31.3738 27.5862 30.7354C28.1798 30.0976 28.2458 29.0529 27.5862 28.4039Z" fill="#EF2752"/>
<path fill-rule="evenodd" clip-rule="evenodd" d="M40.3165 1.73843C40.5144 5.70632 40.7118 9.6742 40.9097 13.6427C40.9097 14.5516 41.7016 15.2534 42.6249 15.2092C43.5483 15.1643 44.2075 14.3907 44.2075 13.4812C44.0096 9.50668 43.8121 5.53285 43.6143 1.55903C43.5483 0.650162 42.7567 -0.0469888 41.8333 0.00247788C40.9759 0.0519445 40.2505 0.830223 40.3165 1.73843Z" fill="#EF2752"/>
</svg>
