<svg width="72" height="32" viewBox="0 0 72 32" fill="none" xmlns="http://www.w3.org/2000/svg">
<path d="M8.27029 11.9625C5.37922 14.79 4.4202 8.54322 1.29535 11.2238C0.889585 11.5719 0.635983 12.1111 0.4914 12.609C0.425522 12.8352 0.657554 13.0253 0.856937 12.8993C3.34457 11.3212 6.10738 17.0666 8.19158 14.0368C9.61584 11.9671 10.9853 11.6459 11.6231 11.6238C11.8714 11.615 12.0802 11.4319 12.1116 11.1853C12.2632 10.0094 11.2762 9.02244 8.27029 11.9619" fill="white"/>
<path d="M65.8719 15.2862C61.1601 19.8941 60.0892 8.23309 53.9386 15.9852C51.9558 18.4839 49.6262 9.58389 44.9873 15.4622C41.8315 19.461 40.9705 9.90512 34.3488 15.6523C31.1511 18.4273 26.4807 12.9618 27.842 2.87421C27.9954 1.73912 27.487 1.58171 26.904 1.73446C26.0563 1.95658 25.4582 2.71855 25.4162 3.59363C24.8606 15.0687 29.9181 21.1213 33.388 18.225C39.1579 13.4083 40.0907 23.205 44.1309 18.0099C48.322 12.6213 49.7469 22.9916 53.6552 17.9854C57.8878 12.5636 62.3255 23.3146 65.757 18.3276C67.5876 15.6674 69.3564 14.9772 70.3953 14.8256C71.236 14.7032 71.7438 13.803 71.3654 13.0422C70.8769 12.0604 69.2375 11.9957 65.8731 15.2862" fill="white"/>
<path d="M67.7163 9.04225C67.7163 10.0607 66.8908 10.8863 65.8723 10.8863C64.8538 10.8863 64.0283 10.0607 64.0283 9.04225C64.0283 8.02376 64.8538 7.19824 65.8723 7.19824C66.8908 7.19824 67.7163 8.02376 67.7163 9.04225Z" fill="white"/>
<path d="M63.4654 9.04225C63.4654 10.0607 62.6398 10.8863 61.6214 10.8863C60.6029 10.8863 59.7773 10.0607 59.7773 9.04225C59.7773 8.02376 60.6029 7.19824 61.6214 7.19824C62.6398 7.19824 63.4654 8.02376 63.4654 9.04225Z" fill="white"/>
<path d="M51.4702 9.36525C51.4702 10.3837 50.6447 11.2093 49.6262 11.2093C48.6077 11.2093 47.7822 10.3837 47.7822 9.36525C47.7822 8.34676 48.6077 7.52124 49.6262 7.52124C50.6447 7.52124 51.4702 8.34676 51.4702 9.36525Z" fill="white"/>
<path d="M49.2798 5.42305C49.2798 6.44154 48.4543 7.26706 47.4358 7.26706C46.4173 7.26706 45.5918 6.44154 45.5918 5.42305C45.5918 4.40456 46.4173 3.57904 47.4358 3.57904C48.4543 3.57904 49.2798 4.40456 49.2798 5.42305Z" fill="white"/>
<path d="M19.4825 3.579C19.4825 4.59749 18.6569 5.423 17.6384 5.423C16.62 5.423 15.7944 4.59749 15.7944 3.579C15.7944 2.5605 16.62 1.73499 17.6384 1.73499C18.6569 1.73499 19.4825 2.5605 19.4825 3.579Z" fill="white"/>
<path d="M47.2198 9.36525C47.2198 10.3837 46.3942 11.2093 45.3757 11.2093C44.3573 11.2093 43.5317 10.3837 43.5317 9.36525C43.5317 8.34676 44.3573 7.52124 45.3757 7.52124C46.3942 7.52124 47.2198 8.34676 47.2198 9.36525Z" fill="white"/>
<path d="M15.6685 29.3736C15.6685 30.3921 14.843 31.2176 13.8245 31.2176C12.806 31.2176 11.9805 30.3921 11.9805 29.3736C11.9805 28.3551 12.806 27.5296 13.8245 27.5296C14.843 27.5296 15.6685 28.3551 15.6685 29.3736Z" fill="white"/>
<path d="M11.418 29.3736C11.418 30.3921 10.5925 31.2176 9.57399 31.2176C8.5555 31.2176 7.72998 30.3921 7.72998 29.3736C7.72998 28.3551 8.5555 27.5296 9.57399 27.5296C10.5925 27.5296 11.418 28.3551 11.418 29.3736Z" fill="white"/>
<path d="M68.9191 0.0047129L56.2594 4.13231C56.2087 4.14863 56.1813 4.20285 56.1976 4.25357L56.5427 5.31112C56.559 5.36184 56.6133 5.38925 56.664 5.37292L69.3237 1.24532C69.3744 1.229 69.4018 1.17478 69.3855 1.12406L69.0404 0.0665103C69.024 0.0157898 68.9698 -0.0116109 68.9191 0.0047129Z" fill="white"/>
<path d="M23.8054 14.4554C23.8054 8.19576 15.7123 2.77334 14.9218 10.0771C14.5119 13.8636 16.6294 14.6524 19.2027 14.1989C19.8283 14.0887 20.8887 13.8724 21.2065 13.9423C21.8046 14.0758 22.0087 14.8944 21.6583 15.3975C21.0077 16.3326 17.8776 16.4859 15.9286 16.4696C15.1806 16.4632 14.5492 17.0444 14.5172 17.7918C14.4391 19.6102 15.8662 18.0898 16.6574 19.83C19.4831 26.0435 6.16346 24.6292 1.45462 15.4756C0.930508 14.4571 0.0280336 15.0792 0.00238188 15.7385C-0.0314318 16.6142 0.298543 17.5382 0.752112 18.2862C7.39649 29.2442 24.3261 28.4874 18.5772 19.1263C20.9015 18.7159 23.806 17.4782 23.806 14.4554M16.9401 10.1307C16.9424 8.0471 19.9985 10.0304 20.4369 11.5404C20.4369 11.5404 16.9372 12.6597 16.9401 10.1307Z" fill="white"/>
<path d="M23.6557 26.4668C23.6248 26.4511 23.6073 26.4237 23.6014 26.3846C23.5956 26.3455 23.6009 26.2872 23.616 26.2097C23.6329 26.1094 23.6504 26.0342 23.6691 25.9835C23.6877 25.9328 23.7134 25.8966 23.746 25.8751C23.7787 25.8535 23.8241 25.843 23.8824 25.843C24.009 25.843 24.1658 25.8389 24.3523 25.8313C24.5395 25.8238 24.733 25.8144 24.933 25.8033C25.1067 25.7934 25.2793 25.7847 25.4507 25.7771C25.6221 25.7695 25.7609 25.7655 25.8664 25.7655C25.9095 25.7655 25.9439 25.7713 25.9696 25.7829C25.9952 25.7946 26.0133 25.8162 26.0238 25.8465C26.0343 25.8774 26.0331 25.9217 26.0209 25.98C25.9999 26.1007 25.9777 26.1928 25.9544 26.2552C25.9305 26.3176 25.9043 26.3595 25.874 26.3799C25.8442 26.4009 25.8069 26.412 25.7626 26.4132C25.6373 26.419 25.5119 26.4237 25.3866 26.4289C25.2606 26.4336 25.1306 26.4406 24.996 26.4487C24.729 26.4598 24.4864 26.4697 24.2684 26.479C24.0503 26.4884 23.8918 26.4919 23.7932 26.4907C23.732 26.4907 23.686 26.4825 23.6557 26.4668ZM23.9256 29.7502C23.7967 29.6622 23.7145 29.5287 23.6778 29.3497C23.6411 29.1713 23.6463 28.9463 23.6936 28.6752C23.7046 28.6198 23.7163 28.5621 23.728 28.5032C23.7396 28.4443 23.753 28.3773 23.7688 28.3021L23.8002 28.175L24.1483 26.6429C24.1774 26.5164 24.2107 26.377 24.2486 26.2237C24.2835 26.1013 24.3075 26.0016 24.3214 25.9234C24.3453 25.7888 24.3634 25.6535 24.3757 25.5183C24.3879 25.383 24.4001 25.2396 24.4112 25.088C24.4211 24.9907 24.4287 24.9061 24.434 24.8338C24.438 24.7948 24.4584 24.7627 24.4946 24.7382C24.5307 24.7131 24.592 24.6951 24.6782 24.6828C24.7645 24.6712 24.8875 24.6653 25.0473 24.6653C25.1155 24.6653 25.1668 24.6788 25.2018 24.7062C25.2367 24.733 25.2519 24.7796 25.2478 24.8449C25.2478 24.902 25.2443 24.9854 25.2373 25.095C25.2315 25.2256 25.2216 25.362 25.207 25.5049C25.1924 25.6471 25.1726 25.7917 25.1475 25.9374C25.1365 25.9998 25.1254 26.0587 25.1143 26.1135C25.1032 26.1683 25.0904 26.2284 25.077 26.2936C25.0479 26.4452 25.0187 26.5822 24.9896 26.7041L24.6124 28.33C24.5984 28.3843 24.5873 28.4356 24.5791 28.484C24.5721 28.5201 24.5657 28.5533 24.5593 28.5842C24.5529 28.6145 24.5447 28.6495 24.5354 28.6886C24.5144 28.804 24.5086 28.8955 24.5179 28.9626C24.5272 29.0302 24.5476 29.0786 24.5803 29.1083C24.6129 29.1381 24.659 29.1532 24.719 29.1532C24.7791 29.1532 24.8397 29.1468 24.8986 29.1346C24.9569 29.1223 25.0222 29.106 25.0945 29.0868C25.1639 29.0646 25.2082 29.0535 25.228 29.0535C25.2682 29.0535 25.3003 29.0664 25.3236 29.092C25.3475 29.1177 25.3627 29.1631 25.3697 29.2284C25.3767 29.2937 25.3743 29.3835 25.3633 29.4972C25.3574 29.5503 25.3498 29.5922 25.3405 29.6231C25.3306 29.6546 25.3166 29.6785 25.298 29.696C25.2793 29.7135 25.2548 29.7275 25.2239 29.7386C25.1575 29.7706 25.0782 29.7969 24.9872 29.8178C24.8963 29.8388 24.8036 29.8546 24.7097 29.8657C24.6159 29.8767 24.5307 29.8826 24.4544 29.8826C24.2322 29.8826 24.0568 29.8382 23.9279 29.7502" fill="white"/>
<path d="M26.4526 29.7601C26.2829 29.6453 26.1523 29.4803 26.0597 29.264C25.967 29.0477 25.9209 28.7912 25.9209 28.4939C25.9209 28.0508 26.0083 27.6182 26.1827 27.1961C26.357 26.7746 26.5978 26.4307 26.905 26.1654C27.2122 25.9001 27.5539 25.7672 27.9305 25.7672C28.1666 25.7672 28.366 25.8273 28.5275 25.9474C28.6895 26.0675 28.8061 26.2377 28.8778 26.4569C28.9496 26.6767 28.9729 26.9303 28.9478 27.2177L28.6726 28.481C28.5601 28.7784 28.4272 29.0343 28.2744 29.2494C28.1217 29.464 27.9427 29.6313 27.7375 29.752C27.5323 29.8721 27.3032 29.9321 27.0484 29.9321C26.8205 29.9321 26.6217 29.875 26.4526 29.7601ZM27.7468 29.1089C27.8803 29.0285 27.9981 28.9195 28.1001 28.783C28.2022 28.646 28.2855 28.4915 28.3491 28.319L28.5869 27.241C28.6108 27.0801 28.6021 26.9408 28.5619 26.8242C28.5216 26.7076 28.4546 26.6184 28.3619 26.5572C28.2686 26.496 28.1584 26.4656 28.0308 26.4656C27.8069 26.4656 27.5976 26.5706 27.4023 26.7805C27.207 26.9903 27.0496 27.2538 26.9301 27.5716C26.8105 27.8893 26.7511 28.1925 26.7511 28.4816C26.7511 28.6385 26.775 28.7731 26.8228 28.8862C26.8706 28.9987 26.9371 29.0844 27.0216 29.1427C27.1061 29.201 27.2076 29.2302 27.3259 29.2302C27.4734 29.2302 27.6133 29.19 27.7468 29.1095M28.5059 29.8563C28.4797 29.8359 28.4587 29.8004 28.4435 29.7491C28.4085 29.6284 28.3788 29.482 28.3526 29.3106C28.3269 29.1392 28.3129 28.9643 28.3106 28.7865C28.3083 28.6087 28.3205 28.4531 28.3473 28.3196L28.5893 27.2189C28.6307 27.0259 28.7006 26.7979 28.798 26.535C28.8411 26.4196 28.8848 26.3088 28.9291 26.2027C28.9735 26.0966 29.0183 26.0022 29.0627 25.9205C29.0796 25.8844 29.0959 25.857 29.1128 25.8383C29.1297 25.8197 29.1478 25.808 29.1682 25.8028C29.188 25.7981 29.216 25.7958 29.2504 25.7958C29.3238 25.7958 29.4119 25.815 29.5139 25.8529C29.6159 25.8914 29.6981 25.9398 29.7599 25.9987C29.8217 26.0575 29.8386 26.1164 29.8112 26.1747C29.7628 26.275 29.7133 26.3881 29.6631 26.5146C29.5798 26.7257 29.5046 26.946 29.4381 27.1751C29.406 27.2795 29.3734 27.4043 29.3402 27.5494C29.3069 27.6946 29.2673 27.8642 29.2212 28.059C29.2072 28.1342 29.1956 28.1936 29.1857 28.2385C29.1758 28.2828 29.1629 28.3411 29.146 28.4134C29.121 28.523 29.1087 28.6373 29.1087 28.7551C29.1087 28.8728 29.1169 28.9912 29.1338 29.1084C29.1507 29.2255 29.174 29.345 29.2049 29.4657C29.2201 29.5229 29.2265 29.5672 29.2236 29.5992C29.2206 29.6313 29.2107 29.6593 29.1932 29.6838C29.1758 29.7083 29.1501 29.7304 29.1151 29.7514C29.0428 29.7875 28.9565 29.819 28.8557 29.8464C28.7548 29.8732 28.6732 29.8872 28.6108 29.8872C28.5677 29.8872 28.5327 29.8773 28.5065 29.8569" fill="white"/>
<path d="M30.4153 29.8283C30.2375 29.7589 30.0923 29.6616 29.9798 29.5368C29.8673 29.4121 29.7915 29.2646 29.7524 29.0949L29.7501 29.0868C29.7402 29.0465 29.7338 29.0092 29.7303 28.9754C29.7268 28.9416 29.7256 28.9154 29.7274 28.8973C29.7303 28.8489 29.7653 28.8022 29.8323 28.7574C29.8999 28.7131 29.9786 28.6769 30.0702 28.6489C30.1611 28.6209 30.2416 28.6075 30.3109 28.6075C30.343 28.6075 30.3675 28.6139 30.3838 28.6274C30.4007 28.6408 30.413 28.6664 30.4211 28.7055C30.424 28.7154 30.4258 28.7235 30.4275 28.7305C30.4526 28.8378 30.4934 28.9293 30.5506 29.0069C30.6077 29.0844 30.6817 29.1445 30.7727 29.1882C30.8636 29.2319 30.9726 29.2541 31.0986 29.2541C31.2245 29.2541 31.3312 29.2342 31.4344 29.1946C31.537 29.155 31.6198 29.0961 31.6816 29.0174C31.7434 28.9387 31.7743 28.8425 31.7743 28.7288C31.7743 28.6355 31.7486 28.5516 31.6973 28.4758C31.646 28.4 31.5825 28.3324 31.5067 28.2735C31.4309 28.2146 31.3265 28.1411 31.193 28.0537C31.0111 27.94 30.863 27.8374 30.7488 27.747C30.6351 27.6567 30.5371 27.5436 30.4561 27.4083C30.3745 27.2731 30.3343 27.1122 30.3343 26.9256C30.3343 26.6895 30.3966 26.4831 30.5208 26.3076C30.645 26.1321 30.8164 25.9981 31.0344 25.9054C31.2525 25.8132 31.4997 25.7666 31.7766 25.7666C31.9783 25.7666 32.1619 25.8027 32.3287 25.875C32.4954 25.9473 32.6283 26.047 32.728 26.1741C32.8271 26.3012 32.8773 26.4452 32.8773 26.6067C32.8761 26.6388 32.872 26.665 32.8656 26.686C32.8592 26.707 32.847 26.725 32.8289 26.7402C32.8108 26.7554 32.7846 26.7699 32.7496 26.7839C32.7012 26.802 32.6254 26.823 32.5234 26.8463C32.4214 26.8702 32.3473 26.8819 32.3013 26.8819C32.2733 26.8819 32.2529 26.8737 32.2389 26.858C32.2249 26.8422 32.2138 26.8137 32.2057 26.7734C32.1917 26.7023 32.1614 26.6405 32.1141 26.5869C32.0669 26.5332 32.0051 26.4913 31.9288 26.4609C31.8524 26.4306 31.7696 26.4149 31.6804 26.4149C31.5731 26.4149 31.4763 26.4335 31.3895 26.4703C31.3026 26.507 31.2344 26.5589 31.1843 26.6254C31.1341 26.6918 31.1091 26.7705 31.1091 26.8609C31.1091 26.9343 31.1318 27.0025 31.1767 27.0643C31.2222 27.1261 31.2781 27.1821 31.3458 27.2311C31.4134 27.2806 31.509 27.3442 31.6326 27.4217C31.8273 27.536 31.9871 27.6403 32.113 27.7365C32.2389 27.8321 32.3473 27.9581 32.4395 28.1137C32.531 28.2694 32.577 28.4536 32.577 28.6658C32.577 28.9299 32.5094 29.1579 32.3747 29.3497C32.2401 29.5415 32.0547 29.6867 31.8191 29.7852C31.5836 29.8837 31.3201 29.9333 31.028 29.9333C30.7972 29.9333 30.5931 29.8983 30.4153 29.8289" fill="white"/>
<path d="M33.1053 29.8458C33.0476 29.8324 33.0074 29.8108 32.9852 29.7811C32.9631 29.7514 32.959 29.7077 32.973 29.6511L33.7588 26.1928C33.7711 26.1327 33.7845 26.0739 33.7985 26.0156C33.8335 25.8587 33.8655 25.7153 33.8953 25.5865C33.925 25.457 33.9512 25.3364 33.9734 25.2238C34.0154 24.9947 34.0486 24.7662 34.0742 24.5382C34.0999 24.3103 34.1168 24.1348 34.1255 24.0106L34.1273 23.971C34.1302 23.9319 34.1378 23.9022 34.15 23.8812C34.1623 23.8602 34.1809 23.8445 34.2054 23.8334C34.2299 23.8223 34.266 23.8118 34.315 23.8019C34.3302 23.7978 34.3413 23.7955 34.3482 23.7955C34.4124 23.7844 34.4818 23.7757 34.5575 23.7693C34.6333 23.7629 34.7039 23.7599 34.7692 23.7599C34.8205 23.7599 34.859 23.7629 34.8846 23.7693C34.9103 23.7757 34.9283 23.7885 34.9388 23.8078C34.9493 23.827 34.9546 23.8561 34.9546 23.8952C34.9557 23.9074 34.9569 23.9203 34.9569 23.9325C34.9557 23.9978 34.9505 24.0905 34.9412 24.2106C34.9318 24.3307 34.9202 24.4613 34.9044 24.6024C34.8893 24.7435 34.8712 24.8758 34.8502 24.9994C34.8403 25.0647 34.8286 25.1341 34.8135 25.2069C34.7989 25.2798 34.7791 25.3719 34.754 25.4833C34.7289 25.6028 34.7033 25.7211 34.6771 25.8377C34.6508 25.9543 34.6223 26.082 34.5914 26.2213C34.5721 26.3047 34.5535 26.3823 34.536 26.454C34.5185 26.5257 34.4992 26.6009 34.4788 26.6802C34.4415 26.8207 34.4025 26.9664 34.3634 27.118C34.3238 27.2696 34.2841 27.4171 34.2433 27.5599L33.8224 28.1394C33.9699 27.7377 34.171 27.3529 34.4258 26.9857C34.6806 26.6184 34.9616 26.3216 35.2676 26.0954C35.5743 25.8698 35.8687 25.7567 36.1526 25.7567C36.3485 25.7567 36.5071 25.8115 36.6289 25.9205C36.7508 26.0295 36.826 26.1887 36.8563 26.398C36.886 26.6073 36.8633 26.8586 36.7887 27.1512L36.4342 28.5603C36.3701 28.8104 36.3287 29.0139 36.31 29.1701C36.2914 29.3264 36.2791 29.4686 36.2733 29.5963C36.2721 29.6377 36.2698 29.6692 36.2669 29.6902C36.2611 29.7316 36.2406 29.7654 36.2045 29.7904C36.1684 29.8155 36.1136 29.8342 36.0401 29.847C35.9666 29.8592 35.871 29.8656 35.7544 29.8656C35.6629 29.8656 35.5947 29.8604 35.551 29.8499C35.5072 29.8394 35.4763 29.8231 35.4583 29.7998C35.4402 29.777 35.4315 29.7426 35.4315 29.6966C35.4262 29.6394 35.428 29.552 35.4379 29.4336C35.4478 29.3153 35.4647 29.176 35.4898 29.0145C35.5148 28.8536 35.5481 28.6897 35.59 28.5248L35.955 27.0947C35.9841 26.9833 35.9958 26.8889 35.9894 26.8102C35.983 26.7315 35.9591 26.6714 35.9177 26.63C35.8763 26.5886 35.8186 26.5676 35.7445 26.5676C35.565 26.5676 35.3527 26.6825 35.1079 26.9116C34.8625 27.1407 34.6357 27.4281 34.4264 27.7727C34.2171 28.1172 34.0754 28.4414 34.0002 28.744C33.953 28.9439 33.9174 29.106 33.8941 29.2308C33.8702 29.3549 33.8475 29.4785 33.8253 29.601C33.8183 29.6371 33.8142 29.6633 33.8131 29.6803C33.8032 29.7263 33.7816 29.7625 33.7484 29.7899C33.7151 29.8167 33.6667 29.8365 33.6038 29.8482C33.5408 29.8598 33.4569 29.8656 33.3525 29.8656C33.2481 29.8656 33.163 29.8592 33.1053 29.8458Z" fill="white"/>
<path d="M37.5345 29.7992C37.4045 29.7106 37.306 29.5736 37.2383 29.3888C37.1707 29.204 37.1439 28.9754 37.1579 28.7032C37.1771 28.2584 37.2885 27.806 37.4914 27.346C37.6943 26.886 37.9613 26.5065 38.2918 26.208C38.6224 25.9095 38.9803 25.7596 39.3651 25.7596C39.5639 25.7596 39.7435 25.8086 39.905 25.9066C40.0665 26.0045 40.2017 26.1357 40.3125 26.3007C40.4227 26.4651 40.5066 26.6499 40.5637 26.8539L40.1906 27.1355C40.1836 27.1104 40.1737 27.0871 40.1615 27.0644C40.1032 26.9227 40.0361 26.8079 39.9603 26.7193C39.8846 26.6312 39.8018 26.5653 39.7126 26.5222C39.6228 26.4791 39.5324 26.4575 39.4403 26.4575C39.2275 26.4575 39.0136 26.5753 38.7984 26.8108C38.5833 27.0463 38.4003 27.3331 38.2504 27.6707C38.1 28.0083 38.0166 28.3085 38.0003 28.5708C37.9892 28.6973 37.9962 28.8017 38.0213 28.8845C38.0464 28.9673 38.0825 29.0273 38.1297 29.0646C38.177 29.1019 38.2341 29.1212 38.3006 29.1212C38.5116 29.1212 38.7448 28.9988 38.999 28.7545C39.2532 28.5102 39.4835 28.2088 39.6893 27.8508C39.8951 27.4929 40.0379 27.16 40.1189 26.851C40.1452 26.7274 40.1714 26.6096 40.197 26.4989C40.2227 26.3875 40.2454 26.2878 40.2647 26.1986C40.2705 26.1654 40.2757 26.1368 40.2816 26.1141C40.2874 26.0914 40.2915 26.0704 40.295 26.0517C40.2985 26.0331 40.3037 26.0115 40.3107 25.9882C40.3189 25.952 40.3346 25.9223 40.3568 25.8984C40.3789 25.8745 40.4145 25.857 40.4629 25.8453C40.5113 25.8337 40.5754 25.8279 40.6547 25.8279C40.787 25.8279 40.8891 25.8343 40.9613 25.8477C41.0336 25.8611 41.0844 25.8844 41.1135 25.9176C41.1427 25.9509 41.1497 25.9963 41.1345 26.0529C41.1013 26.1905 41.0645 26.3345 41.0237 26.4855C40.9835 26.6365 40.9404 26.8119 40.8943 27.0119C40.8191 27.3221 40.7486 27.6258 40.6827 27.9237C40.6168 28.2216 40.5719 28.4385 40.548 28.5732C40.5177 28.7358 40.495 28.8804 40.4804 29.0069C40.4658 29.1334 40.4576 29.2343 40.4565 29.3101C40.4553 29.3859 40.4536 29.4646 40.4524 29.5468C40.4512 29.5748 40.4495 29.601 40.4483 29.6261C40.4471 29.6511 40.4454 29.6727 40.4442 29.6908C40.4372 29.7351 40.4098 29.7701 40.362 29.7957C40.3142 29.8214 40.246 29.8406 40.158 29.8528C40.07 29.8651 39.958 29.8715 39.8233 29.8715C39.779 29.8715 39.7423 29.8668 39.7132 29.8569C39.684 29.847 39.6624 29.8319 39.6484 29.8109C39.6345 29.7899 39.6269 29.759 39.6257 29.717C39.6187 29.6739 39.617 29.6121 39.6205 29.5316C39.624 29.4512 39.6292 29.366 39.6362 29.2774C39.6484 29.1521 39.6624 29.039 39.6782 28.9375C39.6852 28.8892 39.6933 28.8379 39.7021 28.7842C39.7108 28.7306 39.7219 28.6729 39.7341 28.6099C39.7563 28.4962 39.7785 28.3837 39.8006 28.2723C39.8228 28.161 39.8472 28.0362 39.8735 27.8969L40.232 27.8613C40.0752 28.2269 39.8717 28.5668 39.6222 28.8816C39.3727 29.1964 39.1039 29.45 38.8153 29.6424C38.5268 29.8348 38.2533 29.931 37.9951 29.931C37.8184 29.931 37.6651 29.8867 37.5357 29.7975" fill="white"/>
<path d="M41.5709 29.847C41.5068 29.8348 41.4654 29.8079 41.4456 29.7677C41.4263 29.7275 41.4263 29.6686 41.4456 29.5905L41.944 27.5104C41.972 27.4101 41.9913 27.3355 42.0023 27.2853C42.0134 27.2352 42.0321 27.1606 42.0583 27.0603C42.1084 26.8603 42.151 26.686 42.1866 26.5374C42.2221 26.3887 42.2501 26.2645 42.2711 26.1642C42.3032 25.9946 42.3271 25.8302 42.3428 25.671C42.3586 25.5119 42.3673 25.3358 42.369 25.1428C42.372 24.8496 42.4209 24.6006 42.5171 24.3954C42.6127 24.1902 42.7579 24.0328 42.9515 23.922C43.1456 23.8119 43.3904 23.7565 43.686 23.7565C43.7968 23.7565 43.907 23.7646 44.0154 23.7815C44.1239 23.7984 44.2142 23.8189 44.2865 23.8439C44.3157 23.8521 44.3378 23.8632 44.353 23.8771C44.3681 23.8911 44.3786 23.9075 44.3845 23.9261C44.3903 23.9448 44.3926 23.9681 44.3926 23.9961C44.3926 24.0876 44.381 24.1739 44.3571 24.2543C44.3332 24.3348 44.3034 24.4001 44.2673 24.4502C44.2311 24.5004 44.1944 24.5254 44.1565 24.5254C44.1326 24.5254 44.1075 24.5243 44.0807 24.5214C44.0533 24.5184 44.0253 24.5132 43.9962 24.5045C43.9822 24.5033 43.9711 24.5015 43.9618 24.5004C43.9525 24.4992 43.9408 24.4957 43.9251 24.4899C43.9181 24.4887 43.9128 24.487 43.9087 24.4858C43.8516 24.4776 43.8015 24.4701 43.7583 24.4631C43.7152 24.4561 43.668 24.4526 43.6167 24.4526C43.5304 24.4526 43.454 24.4805 43.3864 24.5371C43.3187 24.5936 43.2669 24.6712 43.2301 24.7703C43.1934 24.8694 43.173 24.9913 43.1689 25.1341C43.1677 25.337 43.1596 25.5136 43.145 25.6634C43.1304 25.8133 43.1071 25.9818 43.075 26.1677C43.064 26.2692 43.0348 26.4225 42.9876 26.6283C42.9415 26.8452 42.8751 27.1361 42.7876 27.5016L42.2746 29.64C42.2606 29.7024 42.2361 29.7496 42.2017 29.7817C42.1667 29.8138 42.1236 29.8359 42.0717 29.8482C42.0198 29.8604 41.951 29.8668 41.8665 29.8668C41.733 29.8657 41.6345 29.8587 41.5703 29.8458M41.6187 26.521C41.5896 26.5053 41.5721 26.4785 41.5657 26.4417C41.5593 26.405 41.5633 26.349 41.5773 26.2738C41.5983 26.1625 41.6193 26.0814 41.6409 26.0307C41.6625 25.98 41.6887 25.9456 41.7202 25.9275C41.7517 25.9095 41.7965 25.9007 41.8548 25.9007C42.0204 25.8966 42.1953 25.8908 42.3813 25.8832C42.5667 25.8757 42.7427 25.8681 42.9095 25.8617C43.1153 25.8494 43.2931 25.8401 43.4441 25.8348C43.5945 25.829 43.7257 25.8267 43.837 25.8267C43.872 25.8267 43.8994 25.8313 43.9204 25.8413C43.9414 25.8512 43.9542 25.8681 43.96 25.8931C43.9653 25.9182 43.9653 25.9503 43.96 25.9888C43.9379 26.1263 43.9157 26.2295 43.8936 26.2983C43.8714 26.3671 43.8469 26.4132 43.8195 26.4359C43.7927 26.4586 43.7566 26.4715 43.7123 26.4744C43.5747 26.4814 43.4639 26.4866 43.38 26.4901C43.296 26.4936 43.1864 26.4983 43.0517 26.5035C42.7375 26.5175 42.4699 26.5286 42.2495 26.5368C42.0286 26.5449 41.8653 26.5484 41.7598 26.5473C41.6963 26.5461 41.6496 26.5374 41.6205 26.521" fill="white"/>
<path d="M44.1048 31.895C43.9235 31.8263 43.7678 31.7382 43.6378 31.6304C43.5078 31.5225 43.4034 31.4065 43.3241 31.2812C43.316 31.273 43.3096 31.2631 43.3055 31.252C43.2886 31.2229 43.2792 31.1937 43.2775 31.1646C43.2752 31.1354 43.2792 31.1045 43.2892 31.073C43.3002 31.031 43.3294 30.9792 43.3766 30.9156C43.4238 30.8527 43.4775 30.7955 43.5369 30.7448C43.597 30.6941 43.6518 30.6678 43.7013 30.6667C43.7305 30.6655 43.7556 30.6713 43.7765 30.6842C43.7975 30.6976 43.8208 30.7244 43.8477 30.7646C43.9281 30.876 44.0127 30.9698 44.1007 31.0468C44.1887 31.1237 44.2902 31.1832 44.4038 31.2252C44.5175 31.2666 44.6464 31.2876 44.7898 31.2876C45.0037 31.2876 45.1903 31.2304 45.3495 31.1167C45.5086 31.0025 45.6433 30.8323 45.7529 30.6049C45.8625 30.3775 45.9517 30.093 46.0199 29.7514C46.0922 29.4068 46.1715 29.0652 46.2578 28.7271C46.344 28.3889 46.435 28.0665 46.5306 27.761L46.8851 27.4276C46.7364 27.8526 46.5353 28.2554 46.2817 28.6355C46.0281 29.0156 45.7482 29.3229 45.4427 29.5578C45.1372 29.7928 44.8388 29.9105 44.5484 29.9123C44.3426 29.9123 44.1782 29.8581 44.0552 29.7496C43.9322 29.6412 43.8564 29.4815 43.8278 29.2704C43.7993 29.0594 43.8232 28.8028 43.8995 28.5014L44.2371 27.1506C44.2913 26.9419 44.3333 26.7414 44.363 26.5484C44.3928 26.3554 44.4091 26.1724 44.412 26.0004C44.4149 25.9561 44.4353 25.9217 44.4738 25.8972C44.5117 25.8727 44.5717 25.8546 44.6534 25.8418C44.7344 25.8296 44.8469 25.8232 44.9897 25.8232C45.051 25.8232 45.0994 25.8284 45.1355 25.8389C45.1716 25.8494 45.1979 25.8657 45.2136 25.889C45.2294 25.9118 45.2369 25.9421 45.2358 25.98C45.241 26.1345 45.2282 26.3158 45.1973 26.5251C45.1658 26.7344 45.1192 26.9641 45.0568 27.2142L44.7257 28.5318C44.6936 28.6583 44.679 28.7644 44.6808 28.8495C44.6825 28.9352 44.7035 29.0011 44.742 29.0477C44.781 29.0943 44.8399 29.1177 44.9192 29.1177C45.111 29.1177 45.3331 28.9941 45.585 28.7469C45.8374 28.4997 46.0683 28.1936 46.2782 27.8287C46.488 27.4637 46.6309 27.125 46.7072 26.8125C46.7988 26.4167 46.8571 26.1444 46.8821 25.9951C46.8903 25.9491 46.9101 25.9141 46.9404 25.8902C46.9708 25.8657 47.0192 25.8482 47.085 25.8372C47.1509 25.8261 47.2448 25.8203 47.3654 25.8203C47.4727 25.8203 47.552 25.8261 47.6051 25.8377C47.6575 25.8494 47.6925 25.8721 47.7094 25.9054C47.7263 25.9386 47.7275 25.9858 47.7135 26.047C47.6482 26.2913 47.5567 26.6487 47.4383 27.1186C47.32 27.5885 47.208 28.0525 47.1025 28.5108C47.0471 28.758 46.9941 28.9923 46.9439 29.2144C46.8938 29.436 46.8536 29.6266 46.8233 29.7864C46.7247 30.3169 46.5726 30.746 46.3679 31.0724C46.1627 31.3989 45.9208 31.635 45.6415 31.7814C45.3623 31.9271 45.0498 32 44.7035 32C44.4855 32 44.2855 31.9656 44.1042 31.8968" fill="white"/>
<path d="M47.8149 29.8488C47.7421 29.7945 47.6843 29.7246 47.6418 29.6395C47.5992 29.5538 47.5794 29.4663 47.5823 29.376C47.5835 29.2675 47.6144 29.1655 47.675 29.0699C47.7356 28.9737 47.8149 28.8985 47.9135 28.8437C48.012 28.7889 48.114 28.7615 48.2201 28.7615C48.3064 28.7615 48.3863 28.7877 48.4597 28.8408C48.5332 28.8938 48.5903 28.9632 48.6305 29.0495C48.6708 29.1358 48.6894 29.2232 48.6871 29.3124C48.6859 29.4208 48.6539 29.5229 48.5915 29.6185C48.5291 29.7147 48.4492 29.7905 48.3519 29.847C48.2545 29.903 48.156 29.9315 48.0557 29.9315C47.9683 29.9315 47.8878 29.9047 47.8149 29.8505" fill="white"/>
<path d="M49.8972 29.7374C49.6966 29.6074 49.5462 29.4307 49.4471 29.2069C49.348 28.983 49.2979 28.7247 49.2979 28.4315C49.2979 28.0047 49.3841 27.5861 49.5573 27.1745C49.7304 26.7629 49.9765 26.4242 50.2954 26.1584C50.6143 25.892 50.981 25.759 51.3949 25.759C51.6782 25.759 51.9137 25.8144 52.1003 25.9246C52.2874 26.0348 52.4215 26.1811 52.5026 26.3636C52.5836 26.5455 52.6168 26.7402 52.6017 26.9472C52.6005 26.9944 52.5824 27.0305 52.5475 27.0544C52.5125 27.0789 52.4559 27.0958 52.3778 27.1063C52.2997 27.1168 52.1913 27.1221 52.0537 27.1221C51.9994 27.1221 51.9581 27.118 51.9289 27.1104C51.8998 27.1028 51.8788 27.0894 51.8654 27.0708C51.852 27.0521 51.845 27.0276 51.8438 26.9967C51.8438 26.8854 51.824 26.7892 51.7843 26.7081C51.7447 26.6271 51.6875 26.5641 51.6123 26.5204C51.5371 26.4767 51.4474 26.4545 51.3436 26.4545C51.1308 26.4545 50.9326 26.5572 50.7483 26.7618C50.5641 26.967 50.4172 27.2264 50.3064 27.5401C50.1962 27.8543 50.1409 28.1598 50.1409 28.4571C50.1409 28.6227 50.1653 28.7638 50.2137 28.8804C50.2621 28.997 50.3303 29.085 50.4178 29.1439C50.5052 29.2028 50.6102 29.2325 50.7326 29.2325C50.8381 29.2325 50.9407 29.2074 51.0398 29.1561C51.1389 29.1054 51.234 29.0314 51.3243 28.9329C51.4147 28.8349 51.4992 28.7148 51.5785 28.5731C51.5925 28.5452 51.6088 28.5253 51.6287 28.5137C51.6485 28.502 51.6712 28.4962 51.6975 28.4962C51.7435 28.4962 51.7983 28.5131 51.863 28.5475C51.9277 28.5813 51.9901 28.6227 52.0508 28.6705C52.1114 28.7183 52.1539 28.7603 52.179 28.7964C52.2 28.8203 52.2134 28.8431 52.2198 28.8652C52.2262 28.8874 52.2262 28.9107 52.2198 28.9352C52.2134 28.9597 52.2029 28.9853 52.1878 29.0133C52.0694 29.2104 51.9324 29.3777 51.7762 29.5147C51.6199 29.6517 51.4462 29.7549 51.255 29.8254C51.0637 29.8954 50.8609 29.9309 50.6451 29.9309C50.3478 29.9309 50.0989 29.8656 49.8978 29.7362" fill="white"/>
<path d="M53.4376 29.7258C53.2348 29.5882 53.082 29.4022 52.98 29.1673C52.878 28.9323 52.8267 28.6682 52.8267 28.375C52.8267 27.9651 52.9112 27.5582 53.0808 27.1536C53.2505 26.749 53.493 26.4173 53.8084 26.1573C54.1238 25.8972 54.4894 25.7678 54.905 25.7678C55.1983 25.7678 55.4466 25.836 55.6501 25.973C55.8536 26.11 56.0057 26.296 56.1054 26.531C56.2057 26.7659 56.2552 27.0283 56.2552 27.3186C56.2552 27.7325 56.1713 28.1418 56.004 28.5452C55.8367 28.9492 55.5953 29.2809 55.2799 29.5415C54.9645 29.8021 54.5978 29.9321 54.1792 29.9321C53.8877 29.9321 53.6399 29.8634 53.4371 29.7258M54.8613 28.9119C55.038 28.7044 55.1773 28.4496 55.2805 28.1482C55.3831 27.8468 55.435 27.5728 55.435 27.3267C55.435 27.1559 55.4111 27.0055 55.3638 26.8767C55.3166 26.7473 55.2467 26.6476 55.1534 26.5764C55.0601 26.5053 54.9441 26.4703 54.8053 26.4703C54.5972 26.4703 54.4048 26.5741 54.2288 26.7816C54.0527 26.9892 53.9139 27.244 53.8108 27.5454C53.7081 27.8468 53.6563 28.122 53.6563 28.3709C53.6563 28.5435 53.6796 28.6927 53.7262 28.8198C53.7729 28.9469 53.8422 29.046 53.9349 29.1165C54.0276 29.1877 54.1431 29.2226 54.2818 29.2226C54.4917 29.2226 54.6847 29.1189 54.8613 28.9113" fill="white"/>
<path d="M56.6097 29.847C56.5485 29.8347 56.5076 29.8126 56.4867 29.7811C56.4657 29.7496 56.4622 29.7047 56.4762 29.6464C56.5735 29.2757 56.6866 28.8163 56.8149 28.2688C56.9437 27.7214 57.0288 27.3331 57.0702 27.1034C57.1093 26.8895 57.1367 26.686 57.1536 26.4936C57.1705 26.3012 57.1775 26.152 57.1746 26.0464L57.1723 26.0319C57.1752 25.9858 57.1991 25.9473 57.2451 25.9164C57.2912 25.885 57.3571 25.8616 57.4439 25.8453C57.5308 25.8296 57.634 25.8214 57.7535 25.8214C57.8118 25.8214 57.859 25.8261 57.894 25.8348C57.9296 25.8442 57.9552 25.8587 57.9721 25.8785C57.989 25.899 57.9966 25.9252 57.9949 25.959C58.0007 26.0523 57.9984 26.152 57.9885 26.2592C57.9785 26.3665 57.9646 26.4732 57.9465 26.5805C57.9436 26.5956 57.9418 26.612 57.9401 26.6283C57.9232 26.7198 57.9068 26.8032 57.8899 26.8772C57.873 26.9513 57.8532 27.0282 57.8293 27.1075C57.8071 27.1798 57.7862 27.2439 57.7669 27.2993L57.6876 27.2766C57.8555 26.9862 58.0444 26.7262 58.2537 26.4959C58.463 26.2657 58.6787 26.0855 58.9008 25.9549C59.123 25.8243 59.3363 25.759 59.541 25.759C59.7339 25.759 59.889 25.8156 60.0056 25.9281C60.1222 26.0406 60.1945 26.2021 60.2213 26.4126C60.2481 26.623 60.2272 26.8673 60.1578 27.1454L60.0913 27.4223L60.0184 27.2095C60.1799 26.9355 60.3577 26.6889 60.5519 26.4685C60.7466 26.2482 60.9495 26.075 61.1605 25.9485C61.3716 25.822 61.5762 25.759 61.7733 25.759C61.9802 25.759 62.1481 25.8133 62.2764 25.9217C62.4046 26.0301 62.4851 26.1887 62.5172 26.398C62.5492 26.6073 62.5294 26.8586 62.4589 27.1512L62.1108 28.5644C62.0426 28.8506 61.9977 29.0745 61.9755 29.2354C61.9534 29.3963 61.9388 29.5462 61.9318 29.6837C61.9307 29.7298 61.9085 29.7654 61.8659 29.791C61.8234 29.8167 61.761 29.8353 61.6771 29.8476C61.5937 29.8592 61.4853 29.8651 61.3517 29.8651C61.2905 29.8651 61.2421 29.8592 61.206 29.8476C61.1699 29.8359 61.1436 29.8173 61.1267 29.7922C61.1098 29.7671 61.1016 29.7316 61.1016 29.6861C61.1016 29.6138 61.1069 29.5205 61.118 29.4057C61.129 29.2908 61.1477 29.1544 61.1745 28.9952C61.2007 28.8361 61.2375 28.6635 61.2853 28.4775L61.596 27.2165C61.6363 27.0649 61.6532 26.9413 61.6473 26.8457C61.6409 26.7501 61.6188 26.6796 61.5809 26.6353C61.543 26.591 61.4946 26.5688 61.4363 26.5688C61.2486 26.5688 61.041 26.6796 60.8142 26.9011C60.5869 27.1227 60.3799 27.3955 60.1933 27.7191C60.0062 28.0426 59.8797 28.3399 59.8132 28.611C59.7631 28.8139 59.7252 29.0016 59.6984 29.1736C59.6721 29.3462 59.6506 29.4919 59.6337 29.6115C59.6337 29.6266 59.6337 29.6383 59.6325 29.647C59.6319 29.6552 59.6302 29.6674 59.6272 29.6826C59.622 29.7257 59.5987 29.7613 59.5585 29.7899C59.5182 29.8184 59.4582 29.8382 59.3795 29.8493C59.3002 29.8604 59.1958 29.8662 59.067 29.8662C59.0099 29.8662 58.9638 29.861 58.9282 29.8505C58.8927 29.84 58.8653 29.8225 58.846 29.7974C58.8268 29.7724 58.8175 29.7356 58.8192 29.6867C58.8251 29.5823 58.846 29.4144 58.8839 29.1835C58.9218 28.9527 58.976 28.6892 59.0489 28.3947L59.3492 27.1798C59.3841 27.0381 59.3999 26.9215 59.397 26.8306C59.3941 26.7396 59.3748 26.6732 59.3387 26.6312C59.3025 26.5898 59.2547 26.5688 59.1947 26.5688C58.9999 26.5688 58.7837 26.6866 58.5452 26.9221C58.3068 27.1576 58.0887 27.4515 57.8905 27.8036C57.6923 28.1557 57.5582 28.4909 57.4871 28.8093C57.4509 28.955 57.4235 29.0774 57.4049 29.176C57.3862 29.2745 57.3641 29.3946 57.339 29.5368C57.3291 29.5963 57.3203 29.6441 57.3122 29.6785C57.3023 29.745 57.2609 29.7934 57.1868 29.8225C57.1134 29.8517 57.0084 29.8662 56.872 29.8662C56.7583 29.8662 56.6703 29.8598 56.6091 29.8476" fill="white"/>
<path d="M62.831 29.8488C62.7582 29.7945 62.7004 29.7246 62.6579 29.6395C62.6153 29.5538 62.5955 29.4663 62.5984 29.376C62.5996 29.2675 62.6305 29.1655 62.6911 29.0699C62.7518 28.9737 62.831 28.8985 62.9296 28.8437C63.0281 28.7889 63.1301 28.7615 63.2362 28.7615C63.3225 28.7615 63.4024 28.7877 63.4758 28.8408C63.5493 28.8938 63.6064 28.9632 63.6466 29.0495C63.6869 29.1358 63.7055 29.2232 63.7032 29.3124C63.702 29.4208 63.67 29.5229 63.6076 29.6185C63.5452 29.7147 63.4653 29.7905 63.368 29.847C63.2706 29.903 63.1721 29.9315 63.0718 29.9315C62.9844 29.9315 62.9039 29.9047 62.831 29.8505" fill="white"/>
<path d="M64.8894 29.8283C64.7116 29.7589 64.5664 29.6616 64.4539 29.5368C64.3414 29.4121 64.2656 29.2646 64.2266 29.0949L64.2242 29.0868C64.2143 29.0465 64.2079 29.0092 64.2044 28.9754C64.2009 28.9416 64.1997 28.9154 64.2015 28.8973C64.2044 28.8489 64.2394 28.8022 64.307 28.7574C64.3746 28.7131 64.4533 28.6769 64.5449 28.6489C64.6358 28.6209 64.7163 28.6075 64.7856 28.6075C64.8177 28.6075 64.8416 28.6139 64.8585 28.6274C64.8754 28.6408 64.8877 28.6664 64.8958 28.7055C64.8987 28.7154 64.9005 28.7235 64.9022 28.7305C64.9273 28.8378 64.9681 28.9293 65.0253 29.0069C65.0824 29.0838 65.1564 29.1445 65.2474 29.1882C65.3383 29.2319 65.4473 29.2541 65.5739 29.2541C65.7004 29.2541 65.8065 29.2342 65.9097 29.1946C66.0123 29.155 66.0951 29.0961 66.1569 29.0174C66.2186 28.9387 66.2495 28.8425 66.2495 28.7288C66.2495 28.6355 66.2239 28.5516 66.1726 28.4758C66.1213 28.4 66.0577 28.3324 65.982 28.2735C65.9062 28.2146 65.8018 28.1411 65.6683 28.0537C65.4864 27.94 65.3383 27.8374 65.2241 27.747C65.1104 27.6567 65.0124 27.5436 64.9314 27.4083C64.8498 27.2731 64.8096 27.1122 64.8096 26.9256C64.8096 26.6895 64.8719 26.4831 64.9961 26.3076C65.1203 26.1321 65.2917 25.9981 65.5097 25.9054C65.7278 25.8132 65.975 25.7666 66.2519 25.7666C66.4536 25.7666 66.6372 25.8027 66.804 25.875C66.9707 25.9473 67.1036 26.047 67.2033 26.1741C67.3024 26.3012 67.3526 26.4452 67.3526 26.6067C67.3514 26.6388 67.3473 26.665 67.3409 26.686C67.3345 26.707 67.3223 26.725 67.3042 26.7402C67.2861 26.7554 67.2599 26.7699 67.2249 26.7839C67.1765 26.802 67.1007 26.823 66.9987 26.8463C66.8967 26.8702 66.8226 26.8819 66.7766 26.8819C66.7486 26.8819 66.7282 26.8737 66.7142 26.858C66.7002 26.8422 66.6891 26.8137 66.681 26.7734C66.667 26.7023 66.6366 26.6405 66.5894 26.5869C66.5422 26.5332 66.4804 26.4913 66.404 26.4609C66.3277 26.4306 66.2449 26.4149 66.1557 26.4149C66.0484 26.4149 65.9516 26.4335 65.8648 26.4703C65.7779 26.507 65.7097 26.5589 65.6596 26.6254C65.6094 26.6918 65.5843 26.7705 65.5843 26.8609C65.5843 26.9343 65.6071 27.0025 65.652 27.0643C65.6969 27.1261 65.7534 27.1821 65.821 27.2311C65.8881 27.2806 65.9837 27.3442 66.1079 27.4217C66.3026 27.536 66.4623 27.6403 66.5883 27.7365C66.7142 27.8321 66.8226 27.9581 66.9147 28.1137C67.0063 28.2694 67.0523 28.4536 67.0523 28.6658C67.0523 28.9299 66.9847 29.1579 66.85 29.3497C66.7154 29.5415 66.53 29.6867 66.2944 29.7852C66.0589 29.8837 65.7954 29.9333 65.5033 29.9333C65.2724 29.9333 65.0684 29.8983 64.8906 29.8289" fill="white"/>
<path d="M68.1198 29.7601C67.953 29.6453 67.823 29.4826 67.7298 29.2722C67.6365 29.0617 67.5898 28.8168 67.5898 28.5376C67.5898 28.1196 67.6738 27.6946 67.8411 27.2632C68.0084 26.8317 68.2515 26.4732 68.5704 26.1875C68.8893 25.9019 69.2648 25.759 69.6968 25.759C69.9527 25.759 70.1865 25.8319 70.3981 25.9777C70.6098 26.1234 70.8062 26.3286 70.987 26.5927L70.745 27.0096C70.6587 26.911 70.5719 26.8207 70.4844 26.7385C70.4092 26.6732 70.3357 26.6207 70.2635 26.5811C70.1912 26.5414 70.116 26.5123 70.0373 26.4936C69.9585 26.475 69.8734 26.4656 69.7819 26.4656C69.4968 26.4656 69.252 26.5776 69.0473 26.8014C68.8421 27.0253 68.6876 27.2952 68.5839 27.6112C68.4795 27.9272 68.4282 28.2111 68.4294 28.463C68.4282 28.6227 68.4474 28.7597 68.4877 28.8746C68.5279 28.9894 68.5879 29.0769 68.6678 29.1375C68.7477 29.1981 68.8444 29.2278 68.9587 29.2278C69.1144 29.2278 69.2718 29.1486 69.4309 28.9894C69.5901 28.8302 69.7323 28.6279 69.8571 28.3819C69.9819 28.1359 70.0711 27.8887 70.1241 27.6398C70.1743 27.4089 70.2326 27.1757 70.299 26.9396C70.3655 26.7035 70.4319 26.4936 70.4972 26.31C70.5544 26.1391 70.6028 26.0115 70.643 25.9264C70.6581 25.8902 70.6768 25.8622 70.6984 25.843C70.7199 25.8237 70.745 25.8109 70.7747 25.8057C70.8039 25.8004 70.843 25.7969 70.8913 25.7952H70.91C71.0487 25.7952 71.1624 25.8063 71.2505 25.8284C71.3385 25.8506 71.4003 25.8826 71.4359 25.924C71.4714 25.9654 71.4767 26.0179 71.4516 26.0803C71.3915 26.226 71.3309 26.3927 71.268 26.5793C71.2056 26.7664 71.1449 26.9629 71.0866 27.1705C71.0627 27.255 71.04 27.3378 71.0179 27.4182C70.9759 27.5768 70.9397 27.7313 70.9082 27.8823C70.8768 28.0333 70.8488 28.186 70.8237 28.3417C70.8016 28.4752 70.7864 28.6233 70.7788 28.7865C70.7712 28.9498 70.7689 29.1066 70.7718 29.2564C70.7747 29.4062 70.7806 29.5304 70.7905 29.6272C70.7957 29.6814 70.7759 29.7257 70.7298 29.7607C70.6838 29.7957 70.6173 29.8208 70.5299 29.8371C70.4424 29.8528 70.3363 29.861 70.211 29.861C70.1556 29.861 70.1125 29.8569 70.0816 29.8493C70.0512 29.8417 70.0268 29.8289 70.0099 29.8108C69.9924 29.7928 69.9825 29.7665 69.9795 29.7316C69.9585 29.5397 69.9539 29.3211 69.965 29.0751C69.976 28.8291 69.9999 28.5784 70.0361 28.3225L70.4279 28.2181C70.3183 28.5446 70.1743 28.8361 69.9964 29.0914C69.8186 29.3474 69.6169 29.5508 69.3907 29.703C69.1651 29.8551 68.9301 29.9315 68.687 29.9315C68.4742 29.9315 68.2848 29.8744 68.118 29.7595" fill="white"/>
</svg>
