<svg width="86" height="60" viewBox="0 0 86 60" fill="none" xmlns="http://www.w3.org/2000/svg">
<path fill-rule="evenodd" clip-rule="evenodd" d="M56.2392 53.3218C63.128 54.6623 70.2532 55.5281 76.4657 59.0156C76.8362 59.2219 77.3043 59.0923 77.5137 58.7223C77.7201 58.3517 77.5905 57.8837 77.2205 57.6742C70.8626 54.1059 63.5818 53.1825 56.5329 51.8118C56.1165 51.7286 55.7112 52.003 55.6311 52.42C55.5479 52.8364 55.8228 53.2387 56.2392 53.3218Z" fill="#EF2752"/>
<path fill-rule="evenodd" clip-rule="evenodd" d="M57.3215 43.1737C59.8141 41.5557 62.4195 40.4688 65.3889 40.2148C65.8131 40.1788 66.1259 39.806 66.0915 39.3834C66.0541 38.9603 65.68 38.6463 65.2589 38.6828C62.03 38.9585 59.1958 40.1255 56.4859 41.8835C56.1285 42.1143 56.0258 42.5907 56.2586 42.9472C56.4884 43.3028 56.9671 43.4049 57.3215 43.1737Z" fill="#EF2752"/>
<path fill-rule="evenodd" clip-rule="evenodd" d="M54.999 20.4974C56.5626 17.2763 58.9592 14.9557 62.2679 13.5476C62.658 13.3814 62.8408 12.9295 62.6731 12.5388C62.5084 12.1487 62.0558 11.9664 61.6657 12.1326C58.0037 13.692 55.3468 16.2592 53.6155 19.8255C53.4291 20.207 53.5911 20.6681 53.9715 20.8531C54.3549 21.0389 54.8156 20.8793 54.999 20.4974Z" fill="#EF2752"/>
<path fill-rule="evenodd" clip-rule="evenodd" d="M21.7096 10.1176C21.0039 10.7101 20.3497 11.3666 19.7661 12.0846C19.506 12.4042 19.0267 13.096 18.8628 13.7311C18.6856 14.4074 18.8208 15.0262 19.3695 15.4331C20.0984 15.973 20.7424 16.0389 21.2752 15.8775C21.7881 15.7228 22.2364 15.3237 22.575 14.7441C23.2216 13.6362 23.4618 11.816 23.4034 10.7441C24.141 10.2029 24.9291 9.73231 25.7546 9.33516C31.9032 6.37734 39.711 9.17747 44.9197 16.0437C46.7424 18.4476 47.0601 22.9003 46.8201 27.6057C46.4474 34.9322 44.604 42.873 44.1385 45.2122C44.0249 45.79 44.021 46.1437 44.0396 46.2177C44.1247 46.5803 44.3615 46.711 44.5317 46.7742C44.7787 46.8629 44.9901 46.8488 45.1683 46.7917C45.4094 46.7128 45.6262 46.5387 45.7647 46.2368C45.8399 46.0699 45.8932 45.8287 45.9312 45.5684C45.9556 45.3876 45.9526 45.1849 46.0108 45.0622C46.3874 44.2769 46.8092 43.5192 47.2259 42.7548C48.6199 40.1838 50.2577 37.8308 52.0284 35.5035C57.654 28.1083 63.218 20.23 71.2327 15.2285C71.5921 15.004 71.7038 14.5294 71.478 14.1691C71.2551 13.8093 70.7808 13.6995 70.4183 13.9238C62.2434 19.0239 56.5421 27.0308 50.8044 34.5724C49.2985 36.5522 47.8862 38.5509 46.6327 40.6796C47.4038 36.6687 48.316 31.0903 48.4157 26.0345C48.5048 21.5381 47.916 17.4512 46.1443 15.1143C40.4385 7.59253 31.8213 4.70873 25.088 7.94953C24.3678 8.29653 23.6702 8.69417 23.0077 9.14146C20.8266 2.92963 14.4807 -0.488491 8.07018 1.21786C7.65861 1.32679 7.41547 1.74851 7.52374 2.15841C7.63505 2.56883 8.05533 2.81298 8.4669 2.70405C14.2435 1.16655 19.953 4.38215 21.7096 10.1176ZM21.8268 12.0933C21.5223 12.3985 21.2338 12.7196 20.9585 13.0553C20.8124 13.2358 20.5532 13.5865 20.4077 13.948C20.3746 14.0329 20.3482 14.17 20.3374 14.2337C20.5291 14.3723 20.6844 14.4498 20.8292 14.4055C21.01 14.3513 21.1279 14.1716 21.2465 13.9687C21.545 13.4596 21.7341 12.7498 21.8268 12.0933Z" fill="#EF2752"/>
</svg>
