<svg width="284" height="36" viewBox="0 0 284 36" fill="none" xmlns="http://www.w3.org/2000/svg">
<path d="M279.127 3.28023C276.31 3.43658 272.612 3.51935 269.798 3.55133C268.919 3.56146 269.36 3.43836 268.753 3.44066C267.564 3.44542 266.455 3.54089 265.283 3.53815C264.893 3.5368 265.371 3.34978 264.962 3.35223C262.718 3.36706 260.611 3.49538 258.341 3.55435C247.186 3.84287 236.213 4.30417 224.926 4.83683C221.205 5.01203 216.653 5.11423 212.832 5.40254C212.382 5.4365 212.659 5.56813 212.574 5.58522C211.239 5.84902 211.664 5.52629 210.783 5.53811C207.341 5.58292 203.434 5.8042 200.125 6.06481C198.707 6.17685 200.152 6.38108 198.705 6.30573C198.605 6.30083 198.958 6.12215 198.565 6.12976C197.658 6.14818 196.01 6.27898 195.323 6.30967C194.003 6.36781 193.783 6.38328 192.517 6.46166C190.845 6.56381 188.784 6.61776 186.956 6.77155C186.571 6.80455 187.093 6.93156 186.478 6.99873C185.864 7.06571 184.214 7.15952 183.649 7.15869C183.085 7.15767 183.315 7.0162 183.214 6.99386C182.357 6.80538 180.52 7.26515 180.266 7.29037C175.754 7.73158 171.937 7.7964 167.745 8.08402C165.141 8.2631 162.563 8.48218 159.98 8.67469C159.348 8.72182 158.724 8.76673 158.112 8.80788C154.484 9.05154 151.446 9.18012 147.898 9.44964C147.524 9.47786 147.972 9.63487 147.522 9.66928C142.745 10.0344 137.942 10.3639 133.145 10.5908C132.665 10.6133 133.27 10.4025 132.79 10.4151C129.843 10.4963 125.17 10.5182 123.477 11.3693C121.474 11.4919 119.07 11.645 117.276 11.6362C116.12 11.6306 117.222 11.3654 115.816 11.5501C115.499 11.5916 115.925 11.7174 115.449 11.7677C113.444 11.9792 111.25 12.0966 109.269 12.3321C108.866 12.3803 108.987 12.513 108.875 12.5473C107.929 12.8277 106.3 12.6122 105.949 12.6147C103.276 12.6379 101.345 12.8628 98.8635 13.0547C98.2886 13.0992 98.9831 13.2349 98.4305 13.2845C95.5701 13.5386 92.5887 13.7608 89.7798 13.9033C89.1553 13.9345 89.7151 13.7267 89.416 13.7333C88.0992 13.7646 87.8319 14.0933 86.5591 14.1306C86.291 14.1389 86.4302 13.9884 86.3802 13.9771C85.5989 13.8009 84.9663 14.1926 84.7716 14.216C82.3134 14.5199 80.7072 14.2975 78.3164 14.5464C78.0314 14.5765 78.6897 14.6978 77.8878 14.7717C72.5647 15.2635 66.8642 15.7001 61.5916 16.0207C60.7587 16.0719 61.3404 15.8886 61.2867 15.877C60.4126 15.6987 59.8955 16.0858 59.6278 16.1222C57.5195 16.4005 55.541 16.2906 54.1169 16.8256C45.1099 17.4963 36.3322 18.5494 27.336 19.1317C27.2223 19.1395 27.4076 18.9514 27.1809 18.9677C24.4772 19.1609 25.0559 19.3616 23.2541 19.8792C22.8011 20.0093 21.4041 19.7788 21.2868 19.764C20.8454 19.7094 21.263 19.4113 21.1168 19.4076C19.9271 19.384 20.134 20.1891 18.4908 20.3817C18.439 20.3864 18.6378 20.2102 18.4977 20.2115C18.0626 20.215 17.6507 20.3247 17.238 20.3216C16.3172 20.3111 15.8119 19.9679 14.3999 20.3813C14.2198 20.4352 14.5612 20.8609 13.1204 21.0261C12.4349 21.1038 10.0051 21.446 9.17353 21.5437C8.44117 21.6232 8.91822 21.399 8.86492 21.4004C6.95933 21.493 7.634 21.306 6.58424 21.181C5.55786 21.0606 5.96367 21.7033 5.60807 21.8474C5.46797 21.9127 4.89477 21.9993 4.46727 22.0512C4.24513 22.0785 4.03815 22.1006 3.87145 22.1166C3.71123 22.1307 3.48636 22.1647 3.40158 22.1721C3.02498 22.212 3.44831 22.0006 3.12326 22.0541C2.86057 22.0988 2.68378 22.14 2.55435 22.1792C2.34053 22.2473 2.21322 22.3084 2.13503 22.3598C1.98142 22.4635 1.99156 22.5331 2.01515 22.5926C2.04156 22.6524 2.09624 22.7034 2.12524 22.763C2.1415 22.7907 2.14879 22.8275 2.18306 22.8272C2.19985 22.8251 2.22975 22.8115 2.25987 22.7481C2.29172 22.6893 2.29768 22.5537 2.25367 22.4674C2.24551 22.4494 2.23712 22.4344 2.2296 22.4223C2.92764 22.4123 4.83017 23.1232 6.05126 23.259C6.46242 23.3027 6.13135 23.1604 6.50703 23.1755C7.92787 23.2277 8.83021 23.4336 10.3988 23.3493C10.6371 23.3353 12.007 23.0731 12.8501 23.3273C12.9641 23.3638 12.6321 23.4836 13.2141 23.5299C14.0493 23.599 15.8432 23.6712 16.7296 23.6453C17.4343 23.6276 16.6274 23.398 17.5201 23.4818C17.9205 23.519 17.1735 23.6299 17.9284 23.6893C18.6932 23.7494 20.633 23.7739 21.3423 23.7784C22.0704 23.7835 21.6744 23.6163 21.7331 23.6062C22.086 23.5486 23.52 23.4868 23.6527 23.4881C29.923 23.5325 35.6624 23.8139 41.7499 23.7186C42.2328 23.7112 41.9109 23.5408 41.9846 23.5379C43.639 23.4643 42.3511 23.92 43.484 24.0703C43.3211 23.724 43.9833 23.7859 45.1317 23.7454C45.6857 23.7256 45.3838 23.5921 45.4342 23.5782C46.2563 23.3726 46.8353 23.6342 46.9841 23.6877C47.5331 23.8843 48.1383 23.6484 48.5092 23.7797C48.8764 23.9099 48.0323 24.1074 49.1261 24.1014C49.4329 23.9764 48.6185 23.6549 49.4503 23.5996C52.6046 23.3912 58.5376 23.6172 61.0766 23.6292C63.6105 23.6417 64.4492 23.6137 65.9241 23.6498C68.594 23.7149 67.6147 23.4802 69.2758 23.36C70.9439 23.2396 70.1365 23.8363 70.3772 23.962C70.6133 24.0877 70.8711 23.9552 71.1631 24.0233C71.4546 24.0913 70.825 24.1818 71.5097 24.2037C72.1947 24.2257 74.0683 23.9876 74.3106 23.853C74.8229 23.5679 73.9758 23.2776 75.7917 23.3699C75.8962 23.3754 75.5583 23.5332 75.9582 23.5463C79.1385 23.6458 82.4274 23.6321 85.6071 23.7187C86.0429 23.7308 85.6544 23.9063 85.908 23.9153C88.549 24.0101 87.5917 23.724 89.0487 23.3912C88.7233 23.8246 89.5347 24.0837 91.5392 24.075C92.7426 24.07 92.534 23.8827 93.309 23.7457C93.5395 23.7045 94.3936 23.8294 94.5509 23.7399C95.062 23.4476 94.2555 23.1273 96.3311 23.2461C96.4219 23.2518 96.1334 23.4118 96.4474 23.4198C98.483 23.4729 98.6788 23.1689 100.904 23.1229C102.637 23.0868 105.66 23.2613 107.638 23.287C107.6 23.7721 109.439 23.657 110.171 23.3216C111.459 23.3333 112.843 23.3133 114.055 23.3595C114.472 23.3753 114.198 23.5158 114.251 23.5309C115.054 23.7691 115.6 23.4441 115.885 23.4316C118.886 23.3103 121.303 23.5639 124.111 23.3391C124.215 23.3311 124.351 22.9947 125.124 23.2459C125.174 23.2632 124.211 23.41 125.58 23.4312C126.962 23.4525 129.39 23.655 131.295 23.5249C131.764 23.4936 132.796 23.2346 133.771 23.4652C133.896 23.4964 133.757 23.5907 133.936 23.6476C134.513 23.8292 134.832 23.4944 135.482 23.797C136.093 24.0992 137.555 24.3455 139.372 24.2016C139.413 24.1987 139.645 24.0671 139.972 24.0003C140.122 23.9741 140.289 23.9585 140.465 23.9658C141.488 24.0086 142.629 24.1116 143.721 24.1669C144.196 24.1911 143.901 24.0077 143.984 24.009C144.766 24.0278 145.46 24.0625 146.205 24.1192C146.56 24.1464 146.891 24.1765 147.203 24.209C147.567 24.2461 147.938 24.2889 148.269 24.3328C148.876 24.4143 149.671 24.5342 150.345 24.6833C150.767 24.7776 151.012 24.8342 151.463 24.9958C151.555 25.0312 151.638 25.0674 151.712 25.1047C151.809 25.1519 151.928 25.2241 151.995 25.29C152.054 25.3422 152.151 25.4693 152.125 25.5986C152.095 25.732 152.038 25.7855 151.942 25.8742C151.421 26.3318 149.798 27.0156 148.561 27.1367C147.262 27.2378 148.364 26.1669 145.484 26.9757C144.305 27.2954 142.996 28.6082 140.732 28.4552C136.568 29.3167 132.646 29.6457 128.465 30.5108C128.281 30.5487 127.725 30.9332 127.277 31.0017C126.614 31.1024 126.247 31.0243 125.76 31.095C123.781 31.3793 122.009 31.7937 120.106 32.1404C119.423 32.2679 119.553 32.1216 118.957 32.218C118.892 32.229 118.821 32.2424 118.743 32.2585C117.888 32.4453 117.357 32.7214 116.216 33.0284C116.027 33.0859 115.786 33.136 115.566 33.2587C115.505 33.3009 115.466 33.3133 115.412 33.4051C115.359 33.4927 115.386 33.6297 115.426 33.6932C115.535 33.8586 115.631 33.9179 115.76 34.0035C116.222 34.2911 116.746 34.474 117.346 34.5789C117.452 34.2149 118.239 34.3325 119.697 34.3324C119.979 34.3323 119.687 34.1821 119.821 34.1753C120.38 34.1454 120.837 34.2788 121.363 34.2319C121.484 34.2203 121.496 34.093 121.596 34.0762C122.468 33.9312 123.875 34.2663 124.103 34.3227C125.035 34.5414 125.463 34.3856 126.185 34.4774C126.909 34.5684 125.829 34.6379 126.661 34.7016C128.393 34.8333 130.614 34.8419 132.366 34.8631C133.073 34.8709 132.592 34.6962 132.693 34.6934C134.134 34.6627 135.601 34.8515 136.411 34.5156C137.402 35.3973 137.292 34.4349 139.352 34.6158C139.516 34.6304 139.723 35.046 139.095 35.1055C138.472 35.1649 137.516 35.0323 136.651 35.1236C136.453 35.1452 135.258 35.5283 135.101 35.5508C133.846 35.7275 133.661 35.1051 133.597 35.0708C132.856 34.698 131.396 35.103 131.024 35.1274C129.286 35.2406 127.799 35.1295 126.357 35.1922C125.382 35.2309 125.319 35.6353 124.546 35.601C122.049 35.4782 121.228 34.89 118.829 35.2026C118.299 35.2533 118.798 35.7838 116.951 35.1984C116.922 35.1885 116.818 35.1491 116.67 35.0942C116.489 35.0333 116.288 34.9608 116.05 34.8745C115.911 34.8265 115.776 34.7762 115.646 34.7225C115.485 34.6554 115.321 34.5949 115.089 34.4359C114.941 34.3242 114.764 34.1869 114.637 33.8617C114.466 33.4808 114.685 32.9387 114.778 32.8425C114.991 32.5388 115.202 32.4205 115.286 32.3367C115.399 32.2452 115.334 32.1313 115.513 32.0365C116.493 31.5594 117.022 31.5689 117.97 31.2882C118.195 31.2243 118.444 31.1553 118.718 31.084C119.424 30.8952 120.261 30.7016 121.068 30.5883C121.703 30.4989 122.56 30.5944 122.881 30.5992C123.738 30.624 124.644 30.1907 125.192 30.3091C125.763 30.4249 124.756 30.9085 126.199 30.8077C126.197 30.4674 126.257 30.1078 126.285 29.7606C129.352 29.2741 132.4 28.9075 135.469 28.3926C135.851 28.3281 135.431 28.2134 135.839 28.1397C137.549 27.8308 139.092 27.7044 140.846 27.3441C142.24 27.0576 143.673 26.601 145.108 26.2629C146.047 26.466 148.119 25.9075 149.586 25.5059C150.114 25.3575 150.063 25.4801 150.433 25.3855C151.083 25.2104 151.131 25.0801 151.11 25.0098C151.083 24.937 151.037 24.8493 151.025 24.8252C151.004 24.8298 150.88 24.8882 150.761 25.178C150.687 25.3619 150.666 25.6435 150.73 25.8657C150.786 26.0874 150.915 26.2511 150.946 26.2854C151.164 26.5065 151.115 26.4074 151.077 26.3831C150.996 26.302 150.733 26.1483 150.587 26.0325C150.419 25.9088 150.121 25.7602 149.851 25.6487C149.59 25.5379 149.192 25.4333 148.67 25.3758C148.608 25.3641 147.233 25.636 147.037 25.649C145.947 25.7261 146.882 25.4915 146.183 25.4067C144.761 25.2483 143.998 25.1083 142.374 25.1542C141.95 25.1704 140.88 25.3802 139.934 25.1573C139.929 25.1562 139.925 25.155 139.921 25.1539C139.813 25.1244 139.878 24.9909 139.79 24.9801C138.173 24.7971 138.085 25.2233 137.084 25.3423C136.095 25.4621 134.669 25.1403 134.341 25.0498C133.533 24.8158 134.965 24.9674 135.002 24.947C135.511 24.701 134.431 24.7232 133.561 24.6872C133.422 24.2667 132.286 24.2741 132.692 24.6524C132.731 24.6935 133.379 24.6649 133.561 24.6872C132.772 25.0838 131.597 25.1181 130.139 24.7177C129.482 24.5308 130.037 24.3264 128.086 24.3835C127.184 24.4096 127.531 24.7004 126.723 24.772C124.807 24.9351 122.522 24.6544 120.551 24.6902C119.844 24.7032 120.523 24.8629 120.055 24.8773C118.832 24.9163 117.732 24.7959 116.458 24.855C116.342 24.8605 116.625 25.0256 116.228 25.0273C113.282 25.0437 110.646 24.9409 107.59 24.945C106.081 24.947 103.414 25.0465 101.865 25.0344C99.1386 25.0141 95.8849 24.7902 93.5632 24.8609C92.075 24.9061 92.4013 25.0693 91.7623 25.1851C90.5304 25.4096 88.3201 25.0325 88.0285 24.9739C88.0157 24.972 89.3126 24.9255 88.6204 24.8449C88.2158 24.671 88.0436 24.973 88.0285 24.9739C87.837 24.936 85.2682 24.914 84.7552 24.9488C84.4773 24.9677 84.6337 25.1229 84.4888 25.1299C81.0398 25.2909 77.5984 25.3529 74.1046 25.3021C74.0431 25.2993 74.1346 25.124 73.99 25.1197C71.9687 25.0549 70.6776 25.2767 69.0075 25.4139C67.3392 25.551 66.0232 25.5164 65.0354 25.2222C63.7706 25.2675 61.9637 25.1451 60.9293 25.0702C59.8946 24.9953 59.7536 25.3361 59.6626 25.3433C56.7849 25.5734 55.1855 25.3865 52.1977 25.3684C50.7777 25.3592 48.0299 25.4179 46.4783 25.4588C45.271 25.4918 44.5499 25.4136 43.4559 25.4663C43.3081 25.4734 43.4577 25.6246 43.4126 25.6305C42.1786 25.8135 42.7665 25.4424 42.5107 25.3767C41.5724 25.1373 40.9911 25.0101 39.4168 25.1235C39.0456 25.1495 38.0291 25.6823 37.3307 25.7129C36.451 25.7516 36.7816 25.561 35.8682 25.606C35.7905 25.6096 35.8054 25.7276 35.2457 25.7214C32.6979 25.6943 29.8138 25.6149 27.1145 25.6071C26.7399 25.6055 27.218 25.796 26.6781 25.7967C24.1989 25.8003 21.415 25.763 19 25.6351C18.3836 25.6026 18.7726 25.4782 18.6396 25.437C17.8218 25.1881 16.7036 25.5073 16.5245 25.5098C11.9961 25.5551 8.71698 25.2258 3.94196 24.9122C3.81779 24.9007 3.4818 24.9299 2.94612 24.8994C2.63001 24.8757 2.31654 24.8407 2.0263 24.7801C1.95354 24.7648 1.88192 24.7479 1.81123 24.7288C1.69809 24.6976 1.54423 24.6486 1.40663 24.5924C1.12793 24.4659 0.799104 24.3512 0.390639 23.8379C0.0404544 23.4479 -0.136688 22.5134 0.126043 21.9665C0.353428 21.4171 0.673381 21.1919 0.840592 21.0671C1.01962 20.9541 1.16632 20.8987 1.29786 20.8615C1.32306 20.8545 1.43171 20.8246 1.59213 20.7881C1.67263 20.7697 1.76659 20.7494 1.8735 20.727C1.92643 20.716 1.9856 20.7034 2.04221 20.6921C2.07827 20.6879 2.11591 20.6831 2.15514 20.6775C2.46731 20.633 2.88725 20.5427 3.32712 20.3256C3.35404 20.3121 3.19578 20.3039 3.17322 20.2674C3.14574 20.2324 3.28742 20.1569 3.70118 20.0732C4.64923 19.8778 6.05296 19.5122 7.42883 19.478C7.80589 19.4758 8.73978 19.653 9.97756 19.2182C10.0299 19.1911 11.7221 18.3721 12.4797 18.6761C12.5802 18.7295 12.6035 19.1497 13.9092 18.7638C14.1675 18.6887 13.6745 18.6564 14.3657 18.5094C15.4367 18.2824 16.9381 18.2132 18.213 17.8742C18.4397 17.8139 19.4067 17.4125 20.2682 17.5332C20.397 17.5527 20.1814 17.719 20.5884 17.6886C22.5098 17.546 24.7146 17.2104 26.6888 17.0992C27.4128 17.057 27.0664 17.3225 27.8313 17.3035C28.6191 17.2819 30.1084 17.1867 30.8727 17.0041C31.6428 16.8209 30.7491 16.547 31.9238 16.3984C37.0196 15.7552 42.1335 15.4796 47.2152 15.0402C47.9737 14.9748 47.331 14.9036 48.4531 14.7977C52.5679 14.407 59.6495 13.6552 63.2581 13.6202C66.1217 13.5937 62.5541 14.0719 64.7385 13.9729C65.7939 13.9246 66.9061 13.4055 67.1618 13.3703C69.6576 13.0208 71.3612 13.0638 73.6169 12.8161C74.0815 12.7651 73.6104 12.6331 74.0061 12.5915C75.3597 12.4479 76.7538 12.4079 78.0416 12.2868C78.6176 12.2322 78.5005 12.1109 79.0328 12.0768C80.3073 11.9937 81.4432 11.955 82.68 11.9762C82.7932 11.9781 82.0492 12.2023 82.985 12.1314C84.4986 12.0164 86.4025 11.9821 88.1439 11.7157C88.6574 11.6364 88.6529 11.3372 89.7819 11.4528C90.0189 11.4768 89.7491 11.8582 91.022 11.4448C91.2355 11.3759 93.3865 10.7838 94.4833 10.9664C94.7705 11.0146 95.5127 11.2495 96.1319 11.154C96.2157 11.1399 95.8646 11.007 96.3795 10.9503C98.1935 10.7534 100.11 10.6189 101.977 10.4217C102.475 10.3688 101.718 10.2618 102.461 10.1882C104.504 9.98554 107.067 9.82802 109.074 9.72458C109.815 9.68675 109.315 9.86335 109.37 9.8741C110.253 10.0497 110.738 9.68287 111.024 9.64164C112.8 9.38954 114.163 9.43958 115.81 9.27269C116.263 9.22713 115.929 9.09564 116.019 9.0748C116.946 8.86712 116.269 9.20087 116.865 9.18647C118.536 9.14697 120.378 8.99454 122.06 8.84742C122.678 8.79313 121.969 8.66459 122.524 8.61798C125.805 8.33896 129.21 8.102 132.419 7.96493C133.021 7.9396 132.653 8.107 132.781 8.12958C133.661 8.28848 134.896 7.89189 135.193 7.84093C136.518 7.61053 137.043 7.69597 138.213 7.5872C143.926 7.0535 150.998 6.62787 156.417 6.29755C157.593 6.22559 158.716 6.15963 159.8 6.09753C165.358 5.77741 170.005 5.54644 175.644 5.1393C176.066 5.10896 175.628 4.95193 175.992 4.92343C180.77 4.55865 185.4 4.32796 190.189 3.96805C190.578 3.9391 190.006 3.79897 190.629 3.74665C191.893 3.63912 193.547 3.54402 194.85 3.51864C195.485 3.50597 194.646 3.71024 195.284 3.69446C196.754 3.65914 198.372 3.57119 199.895 3.44924C200.542 3.39705 199.554 3.27706 200.395 3.22334C206.152 2.85225 211.804 2.48699 217.634 2.3924C218.033 2.38602 218.397 2.73255 219.235 2.61535C219.294 2.51018 219.284 2.39091 219.306 2.28079C227.715 1.75312 235.978 1.45375 244.406 1.07946C244.757 1.06385 244.142 0.898164 244.821 0.86702C248.801 0.684562 252.658 0.459618 256.731 0.480752C257.136 0.482614 256.935 0.83285 258.127 0.731263C258.339 0.712812 260.127 0.593144 260.581 0.50049C260.644 0.486721 260.309 0.34083 260.888 0.312509C264.238 0.151286 267.757 0.0496581 271.105 0.0194149C271.646 0.0148499 271.078 0.206446 271.462 0.204682C274.194 0.190752 277.154 -0.0486997 279.767 0.00895429C281.515 0.048267 280.88 0.365465 281.818 0.619986C281.951 0.655879 283.031 0.622521 283.093 0.78846C283.252 1.20561 282.746 1.68745 282.977 2.12981C283.026 2.22513 284.469 2.06738 283.621 2.3333C283.562 2.35119 282.516 2.46761 282.26 2.55665C282.083 2.61825 282.413 2.77715 282.049 2.86105C281.684 2.94487 281.274 2.81658 280.67 2.92167C280.066 3.02782 280.341 3.21226 279.127 3.28023ZM56.2478 24.7344C55.288 24.5756 55.1496 25.1744 56.1859 25.0265C56.2361 25.0186 56.2974 24.7422 56.2478 24.7344ZM132.449 29.3514C133.733 29.4132 134.52 28.893 133.613 28.8328C132.704 28.7727 132.059 29.3328 132.449 29.3514ZM119.598 31.7046C121.093 31.627 121.16 30.7531 119.636 31.2194C119.544 31.2474 119.51 31.7099 119.598 31.7046ZM277.522 0.861267C277.536 0.868696 278.311 0.847675 278.33 0.839088C278.736 0.633897 277.184 0.676154 277.522 0.861267ZM123.759 34.7483C123.286 34.6193 121.991 34.6994 122.541 34.8644C122.981 34.9984 124.326 34.9098 123.759 34.7483ZM6.07054 23.5533C6.05157 23.5435 5.5049 23.4928 5.51533 23.5437C5.52992 23.7088 6.31333 23.7219 6.07054 23.5533ZM145.74 34.9407C142.494 34.9083 140.523 34.2052 144.06 34.2867C144.701 34.3013 142.679 34.5095 143.495 34.5731C144.985 34.6889 145.976 34.2489 147.499 34.4847C147.774 34.5279 145.924 34.9441 145.735 34.9417C145.737 34.9413 145.739 34.941 145.74 34.9407ZM55.6922 24.0185C55.6728 24.0107 54.905 24.0067 54.887 24.0146C54.4721 24.2065 56.0186 24.2146 55.6922 24.0185ZM29.4065 18.7506C29.4443 18.7633 31.195 18.5991 31.2561 18.5775C32.1378 18.1747 28.5939 18.5061 29.4065 18.7506ZM107.669 23.2998C108.511 23.1068 109.508 23.0824 110.167 23.3214C109.345 23.3099 108.51 23.3096 107.669 23.2998Z" fill="#DC2626"/>
</svg>
