<svg width="188" height="163" viewBox="0 0 188 163" fill="none" xmlns="http://www.w3.org/2000/svg">
<path opacity="0.1" d="M175 116.627C175 118.836 173.209 120.627 171 120.627H105.454C101.89 120.627 100.106 124.936 102.626 127.455L149.371 174.2C150.933 175.763 150.933 178.295 149.371 179.857L138.231 190.997C136.669 192.559 134.137 192.559 132.574 190.997L85.8294 144.252C83.3095 141.732 79.001 143.516 79.001 147.08V212.626C79.001 214.835 77.2101 216.626 75.001 216.626H58.999C56.7899 216.626 54.999 214.835 54.999 212.626V145.879C54.999 142.315 50.6905 140.531 48.1706 143.051L1.42555 189.796C-0.136551 191.358 -2.66921 191.358 -4.2313 189.796L-15.4015 178.625C-16.9515 177.075 -16.9653 174.567 -15.4325 173L29.1517 127.424C31.6289 124.892 29.8348 120.627 26.2923 120.627H-37C-39.2091 120.627 -41 118.836 -41 116.627V100.625C-41 98.4159 -39.2091 96.625 -37 96.625H28.546C32.1096 96.625 33.8943 92.3165 31.3745 89.7966L-15.3706 43.0515C-16.9327 41.4894 -16.9327 38.9568 -15.3706 37.3947L-4.2313 26.2554C-2.66921 24.6933 -0.136547 24.6933 1.42555 26.2554L48.1706 73.0004C50.6905 75.5203 54.999 73.7356 54.999 70.172V4.62598C54.999 2.41684 56.7899 0.625977 58.999 0.625977H75.001C77.2101 0.625977 79.001 2.41684 79.001 4.62598V67.7701C79.001 71.3337 83.3095 73.1184 85.8294 70.5985L131.274 25.1537C132.875 23.5534 135.483 23.5984 137.027 25.253L148.361 37.398C149.832 38.9738 149.79 41.4315 148.266 42.9556L101.425 89.7966C98.9047 92.3165 100.689 96.625 104.253 96.625H171C173.209 96.625 175 98.4159 175 100.625V116.627Z" fill="#EF4444"/>
<path opacity="0.4" d="M187 120.627H107.797L164.199 177.029L147.403 193.825L91.001 137.423V216.626H66.999V136.222L10.5971 192.624L-6.19904 175.828L47.801 120.627H-29V96.625H50.2029L-6.19904 40.2231L10.5971 23.4269L66.999 79.8289V0.625977H91.001V77.4269L146.202 22.226L162.998 40.2231L106.596 96.625H187V120.627Z" stroke="#433CA6" stroke-width="1.25185"/>
</svg>
