<svg width="75" height="106" viewBox="0 0 75 106" fill="none" xmlns="http://www.w3.org/2000/svg">
<path d="M38.1541 14.6574C50.3607 8.96537 61.9449 4.18527 71.723 0.696211C76.9845 -1.18134 82.8751 0.824633 85.8056 5.6502C89.9521 12.4661 94.3832 20.7761 98.6373 29.8991C102.891 39.0221 106.409 47.7581 108.965 55.3158C110.778 60.6617 108.528 66.4644 103.708 69.288C95.5298 74.0787 85.5667 79.3219 74.609 84.5298L67.054 101.198C66.3984 102.646 65.244 103.812 63.8002 104.485C60.4678 106.038 56.5084 104.596 54.9546 101.264L51.8494 94.6046C46.9038 96.6272 42.2084 98.4409 37.8665 99.9904C32.605 101.868 26.7142 99.8616 23.7839 95.0364C19.6373 88.2204 15.2062 79.9104 10.9521 70.7874C6.69792 61.6644 3.1804 52.9284 0.624457 45.3708C-1.1885 40.0242 1.06127 34.2222 5.88158 31.3986C14.8396 26.1508 25.9475 20.3494 38.1541 14.6574ZM38.3437 62.9797C36.0925 64.0295 35.1168 66.7074 36.1671 68.9598C37.2175 71.2123 39.896 72.1862 42.1473 71.1364L64.5784 60.6766C66.8297 59.6269 67.8054 56.949 66.755 54.6965C65.7047 52.444 63.0261 51.4701 60.7749 52.5199L38.3437 62.9797ZM30.7366 46.6661C28.4853 47.7159 27.5097 50.3939 28.56 52.6463C29.6103 54.8987 32.2889 55.8727 34.5402 54.8229L71.2456 37.7069C73.4969 36.6571 74.4726 33.9791 73.4223 31.7267C72.3719 29.4743 69.6934 28.5003 67.4421 29.5501L30.7366 46.6661Z" fill="#EF4444"/>
</svg>
